<mxfile host="65bd71144e">
    <diagram id="rA5KS_z2IOA_mz4io4nV" name="Page-1">
        <mxGraphModel dx="814" dy="450" grid="1" gridSize="10" guides="1" tooltips="1" connect="1" arrows="1" fold="1" page="1" pageScale="1" pageWidth="850" pageHeight="1100" math="0" shadow="0">
            <root>
                <mxCell id="0"/>
                <mxCell id="1" parent="0"/>
                <mxCell id="4" style="edgeStyle=none;html=1;entryX=0.5;entryY=0;entryDx=0;entryDy=0;exitX=0.5;exitY=1;exitDx=0;exitDy=0;" parent="1" source="22" target="3" edge="1">
                    <mxGeometry relative="1" as="geometry">
                        <mxPoint x="470" y="-20" as="targetPoint"/>
                        <Array as="points">
                            <mxPoint x="605" y="130"/>
                            <mxPoint x="460" y="130"/>
                        </Array>
                        <mxPoint x="601.9611613513819" y="49.80580675690908" as="sourcePoint"/>
                    </mxGeometry>
                </mxCell>
                <mxCell id="16" style="edgeStyle=none;html=1;entryX=0.5;entryY=0;entryDx=0;entryDy=0;" parent="1" source="3" target="23" edge="1">
                    <mxGeometry relative="1" as="geometry"/>
                </mxCell>
                <mxCell id="3" value="localFiles1.read" style="rounded=1;whiteSpace=wrap;fillColor=#ffff88;strokeColor=#36393d;fontColor=#000000;" parent="1" vertex="1">
                    <mxGeometry x="390" y="170" width="140" height="60" as="geometry"/>
                </mxCell>
                <mxCell id="8" style="edgeStyle=none;html=1;entryX=0.5;entryY=0;entryDx=0;entryDy=0;exitX=0.5;exitY=1;exitDx=0;exitDy=0;" parent="1" source="21" target="3" edge="1">
                    <mxGeometry relative="1" as="geometry">
                        <mxPoint x="530" y="120" as="targetPoint"/>
                        <Array as="points">
                            <mxPoint x="305" y="130"/>
                            <mxPoint x="460" y="130"/>
                        </Array>
                        <mxPoint x="308.03883864861825" y="49.80580675690908" as="sourcePoint"/>
                    </mxGeometry>
                </mxCell>
                <mxCell id="19" style="edgeStyle=none;html=1;" parent="1" source="15" target="26" edge="1">
                    <mxGeometry relative="1" as="geometry">
                        <mxPoint x="460" y="500" as="targetPoint"/>
                    </mxGeometry>
                </mxCell>
                <mxCell id="34" style="edgeStyle=none;html=1;entryX=1;entryY=0.5;entryDx=0;entryDy=0;" parent="1" source="15" target="22" edge="1">
                    <mxGeometry relative="1" as="geometry">
                        <Array as="points">
                            <mxPoint x="800" y="390"/>
                            <mxPoint x="800" y="60"/>
                        </Array>
                    </mxGeometry>
                </mxCell>
                <mxCell id="15" value="speechToText1&#10;timeout:120" style="rounded=1;whiteSpace=wrap;fillColor=#ffff88;strokeColor=#36393d;fontColor=#000000;" parent="1" vertex="1">
                    <mxGeometry x="390" y="360" width="140" height="60" as="geometry"/>
                </mxCell>
                <mxCell id="36" style="edgeStyle=none;html=1;entryX=0;entryY=0.5;entryDx=0;entryDy=0;" parent="1" source="21" target="27" edge="1">
                    <mxGeometry relative="1" as="geometry">
                        <Array as="points">
                            <mxPoint x="305" y="130"/>
                            <mxPoint x="230" y="130"/>
                            <mxPoint x="230" y="570"/>
                        </Array>
                    </mxGeometry>
                </mxCell>
                <mxCell id="21" value="source:&#10;d.state.sources.localFiles.audio" style="rounded=1;whiteSpace=wrap;fillColor=#cce5ff;strokeColor=#36393d;fontColor=#000000;" parent="1" vertex="1">
                    <mxGeometry x="190" y="40" width="230" height="40" as="geometry"/>
                </mxCell>
                <mxCell id="35" style="edgeStyle=none;html=1;entryX=0.5;entryY=0;entryDx=0;entryDy=0;" parent="1" source="22" target="15" edge="1">
                    <mxGeometry relative="1" as="geometry">
                        <Array as="points">
                            <mxPoint x="605" y="340"/>
                            <mxPoint x="460" y="340"/>
                        </Array>
                    </mxGeometry>
                </mxCell>
                <mxCell id="37" style="edgeStyle=none;html=1;entryX=1;entryY=0.5;entryDx=0;entryDy=0;" parent="1" source="22" target="27" edge="1">
                    <mxGeometry relative="1" as="geometry">
                        <Array as="points">
                            <mxPoint x="605" y="130"/>
                            <mxPoint x="660" y="130"/>
                            <mxPoint x="660" y="570"/>
                        </Array>
                    </mxGeometry>
                </mxCell>
                <mxCell id="22" value="timeline:&#10;d.state.timelines.timelineSpeech" style="rounded=1;whiteSpace=wrap;fillColor=#cce5ff;strokeColor=#36393d;fontColor=#000000;" parent="1" vertex="1">
                    <mxGeometry x="480" y="40" width="250" height="40" as="geometry"/>
                </mxCell>
                <mxCell id="24" style="edgeStyle=none;html=1;entryX=0.5;entryY=0;entryDx=0;entryDy=0;fontColor=#000000;" parent="1" source="23" target="15" edge="1">
                    <mxGeometry relative="1" as="geometry"/>
                </mxCell>
                <mxCell id="28" style="edgeStyle=none;html=1;entryX=0;entryY=0.5;entryDx=0;entryDy=0;fontColor=#000000;" parent="1" source="23" target="27" edge="1">
                    <mxGeometry relative="1" as="geometry">
                        <Array as="points">
                            <mxPoint x="270" y="300"/>
                            <mxPoint x="270" y="570"/>
                        </Array>
                    </mxGeometry>
                </mxCell>
                <mxCell id="23" value="bytes:&#10;b.localFiles.myping_audio" style="rounded=1;whiteSpace=wrap;fillColor=#cce5ff;strokeColor=#36393d;fontColor=#000000;" parent="1" vertex="1">
                    <mxGeometry x="345" y="280" width="230" height="40" as="geometry"/>
                </mxCell>
                <mxCell id="29" style="edgeStyle=none;html=1;fontColor=#000000;" parent="1" source="26" target="27" edge="1">
                    <mxGeometry relative="1" as="geometry"/>
                </mxCell>
                <mxCell id="26" value="transcript:&#10;d.transcript" style="rounded=1;whiteSpace=wrap;fillColor=#cce5ff;strokeColor=#36393d;fontColor=#000000;" parent="1" vertex="1">
                    <mxGeometry x="345" y="460" width="230" height="40" as="geometry"/>
                </mxCell>
                <mxCell id="31" style="edgeStyle=none;html=1;fontColor=#000000;entryX=0;entryY=0.5;entryDx=0;entryDy=0;" parent="1" source="27" target="30" edge="1">
                    <mxGeometry relative="1" as="geometry">
                        <Array as="points">
                            <mxPoint x="460" y="650"/>
                            <mxPoint x="290" y="650"/>
                            <mxPoint x="290" y="700"/>
                        </Array>
                    </mxGeometry>
                </mxCell>
                <mxCell id="27" value="audioFeature1.diarization&#10;timeout:120" style="rounded=1;whiteSpace=wrap;fillColor=#ffff88;strokeColor=#36393d;fontColor=#000000;" parent="1" vertex="1">
                    <mxGeometry x="370" y="540" width="180" height="60" as="geometry"/>
                </mxCell>
                <mxCell id="39" style="edgeStyle=none;html=1;" parent="1" source="30" target="27" edge="1">
                    <mxGeometry relative="1" as="geometry">
                        <mxPoint x="460" y="600" as="targetPoint"/>
                        <Array as="points">
                            <mxPoint x="630" y="700"/>
                            <mxPoint x="630" y="650"/>
                            <mxPoint x="460" y="650"/>
                        </Array>
                    </mxGeometry>
                </mxCell>
                <mxCell id="41" style="edgeStyle=none;html=1;entryX=0.5;entryY=0;entryDx=0;entryDy=0;" parent="1" source="30" target="40" edge="1">
                    <mxGeometry relative="1" as="geometry">
                        <Array as="points"/>
                    </mxGeometry>
                </mxCell>
                <mxCell id="30" value="diarization:&#10;d.state.temporal.diarization" style="rounded=1;whiteSpace=wrap;fillColor=#cce5ff;strokeColor=#36393d;fontColor=#000000;" parent="1" vertex="1">
                    <mxGeometry x="345" y="680" width="230" height="40" as="geometry"/>
                </mxCell>
                <mxCell id="32" value="type:flux" style="rounded=1;whiteSpace=wrap;fillColor=#ffcccc;strokeColor=#36393d;fontColor=#000000;" parent="1" vertex="1">
                    <mxGeometry x="40" y="40" width="100" height="40" as="geometry"/>
                </mxCell>
                <mxCell id="40" value="milvusIx1.indexintent" style="rounded=1;whiteSpace=wrap;fillColor=#ffff88;strokeColor=#36393d;fontColor=#000000;" parent="1" vertex="1">
                    <mxGeometry x="370" y="780" width="180" height="60" as="geometry"/>
                </mxCell>
                <mxCell id="43" style="edgeStyle=none;html=1;entryX=0.5;entryY=0;entryDx=0;entryDy=0;" parent="1" source="42" target="3" edge="1">
                    <mxGeometry relative="1" as="geometry">
                        <Array as="points">
                            <mxPoint x="945" y="130"/>
                            <mxPoint x="460" y="130"/>
                        </Array>
                    </mxGeometry>
                </mxCell>
                <mxCell id="44" style="edgeStyle=none;html=1;entryX=0.5;entryY=0;entryDx=0;entryDy=0;" parent="1" source="42" target="15" edge="1">
                    <mxGeometry relative="1" as="geometry">
                        <Array as="points">
                            <mxPoint x="945" y="340"/>
                            <mxPoint x="460" y="340"/>
                        </Array>
                    </mxGeometry>
                </mxCell>
                <mxCell id="45" style="edgeStyle=none;html=1;entryX=0.5;entryY=0;entryDx=0;entryDy=0;" parent="1" source="42" target="27" edge="1">
                    <mxGeometry relative="1" as="geometry">
                        <Array as="points">
                            <mxPoint x="945" y="520"/>
                            <mxPoint x="460" y="520"/>
                        </Array>
                    </mxGeometry>
                </mxCell>
                <mxCell id="46" style="edgeStyle=none;html=1;entryX=0.5;entryY=0;entryDx=0;entryDy=0;" parent="1" source="42" target="40" edge="1">
                    <mxGeometry relative="1" as="geometry">
                        <Array as="points">
                            <mxPoint x="945" y="750"/>
                            <mxPoint x="460" y="750"/>
                        </Array>
                    </mxGeometry>
                </mxCell>
                <mxCell id="42" value="media:&#10;d.args.sql" style="rounded=1;whiteSpace=wrap;fillColor=#cce5ff;strokeColor=#36393d;fontColor=#000000;" parent="1" vertex="1">
                    <mxGeometry x="830" y="40" width="230" height="40" as="geometry"/>
                </mxCell>
                <mxCell id="49" style="edgeStyle=none;html=1;" parent="1" source="47" target="48" edge="1">
                    <mxGeometry relative="1" as="geometry"/>
                </mxCell>
                <mxCell id="47" value="source:&#10;d.alltranscript.input" style="rounded=1;whiteSpace=wrap;fillColor=#cce5ff;strokeColor=#36393d;fontColor=#000000;" parent="1" vertex="1">
                    <mxGeometry x="220" y="880" width="230" height="40" as="geometry"/>
                </mxCell>
                <mxCell id="51" style="edgeStyle=none;html=1;" parent="1" source="48" target="50" edge="1">
                    <mxGeometry relative="1" as="geometry"/>
                </mxCell>
                <mxCell id="48" value="llm.summary&#10;timeout:900" style="rounded=1;whiteSpace=wrap;fillColor=#ffff88;strokeColor=#36393d;fontColor=#000000;" parent="1" vertex="1">
                    <mxGeometry x="245" y="940" width="180" height="60" as="geometry"/>
                </mxCell>
                <mxCell id="50" value="summary:&#10;d.alltranscript.output" style="rounded=1;whiteSpace=wrap;fillColor=#cce5ff;strokeColor=#36393d;fontColor=#000000;" parent="1" vertex="1">
                    <mxGeometry x="220" y="1020" width="230" height="40" as="geometry"/>
                </mxCell>
            </root>
        </mxGraphModel>
    </diagram>
</mxfile>